<svg width="62" height="66" viewBox="0 0 62 66" fill="none" xmlns="http://www.w3.org/2000/svg">
<path d="M0 33C0 27.4772 4.47715 23 10 23L20 23V33C20 38.5228 15.5228 43 10 43V43C4.47715 43 0 38.5228 0 33V33Z" fill="black"/>
<path d="M0 56C0 50.4772 4.47715 46 10 46H20V56C20 61.5228 15.5228 66 10 66H0V56Z" fill="black"/>
<path d="M10 -4.37114e-07C15.5228 -1.95703e-07 20 4.47715 20 10L20 20L10 20C4.47715 20 -6.78525e-07 15.5228 -4.37114e-07 10L0 -8.74228e-07L10 -4.37114e-07Z" fill="black"/>
<path d="M23 10C23 4.47715 27.4772 0 33 0H62V10C62 15.5228 57.5228 20 52 20H23V10Z" fill="black"/>
<path d="M23 33C23 27.4772 27.4772 23 33 23V23C38.5228 23 43 27.4772 43 33V33C43 38.5228 38.5228 43 33 43V43C27.4772 43 23 38.5228 23 33V33Z" fill="black"/>
</svg>
