<svg width="64" height="64" viewBox="0 0 62 66" fill="none" xmlns="http://www.w3.org/2000/svg">
  <path d="M0 33C0 27.4772 4.47715 23 10 23H20V33C20 38.5228 15.5228 43 10 43C4.47715 43 0 38.5228 0 33Z" fill="#111A11"/>
  <path d="M0 56C0 50.4772 4.47715 46 10 46H20V56C20 61.5228 15.5228 66 10 66H0V56Z" fill="#111A11"/>
  <path d="M10 0C15.5228 0 20 4.47715 20 10V20H10C4.47715 20 0 15.5228 0 10V0H10Z" fill="#111A11"/>
  <path d="M23 10C23 4.47715 27.4772 0 33 0H62V10C62 15.5228 57.5228 20 52 20H23V10Z" fill="#111A11"/>
  <path d="M23 33C23 27.4772 27.4772 23 33 23C38.5228 23 43 27.4772 43 33C43 38.5228 38.5228 43 33 43C27.4772 43 23 38.5228 23 33Z" fill="#111A11"/>
</svg>
